<?xml version="1.0" encoding="UTF-8" standalone="no"?>
<!-- Created with Inkscape (http://www.inkscape.org/) -->

<svg
   width="500.00003"
   height="371.74103"
   viewBox="0 0 500.00003 371.74103"
   version="1.1"
   id="svg5"
   xml:space="preserve"
   inkscape:version="1.2.2 (b0a8486541, 2022-12-01)"
   sodipodi:docname="folder.svg"
   xmlns:inkscape="http://www.inkscape.org/namespaces/inkscape"
   xmlns:sodipodi="http://sodipodi.sourceforge.net/DTD/sodipodi-0.dtd"
   xmlns:xlink="http://www.w3.org/1999/xlink"
   xmlns="http://www.w3.org/2000/svg"
   xmlns:svg="http://www.w3.org/2000/svg"><sodipodi:namedview
     id="namedview7"
     pagecolor="#2f2f48"
     bordercolor="#eeeeee"
     borderopacity="1"
     inkscape:showpageshadow="0"
     inkscape:pageopacity="0"
     inkscape:pagecheckerboard="true"
     inkscape:deskcolor="#1e1e2e"
     inkscape:document-units="px"
     showgrid="false"
     inkscape:zoom="0.88148148"
     inkscape:cx="20.987395"
     inkscape:cy="232.56303"
     inkscape:window-width="1916"
     inkscape:window-height="1024"
     inkscape:window-x="0"
     inkscape:window-y="0"
     inkscape:window-maximized="1"
     inkscape:current-layer="layer1" /><defs
     id="defs2"><inkscape:perspective
       sodipodi:type="inkscape:persp3d"
       inkscape:vp_x="0 : -189.51881 : 1"
       inkscape:vp_y="0 : 3779.5274 : 0"
       inkscape:vp_z="793.70079 : -189.51881 : 1"
       inkscape:persp3d-origin="396.85039 : -376.60544 : 1"
       id="perspective3582" /><linearGradient
       id="a"
       x1="24"
       y1="-18"
       x2="24"
       y2="16.32"
       gradientUnits="userSpaceOnUse"><stop
         offset="0"
         stop-color="#f3c57a"
         id="stop187" /><stop
         offset=".49"
         stop-color="#f39369"
         id="stop189" /><stop
         offset="1"
         stop-color="#e94867"
         id="stop191" /></linearGradient><linearGradient
       id="e"
       x1="26.4"
       y1="-13.39"
       x2="24.15"
       y2="10.78"
       xlink:href="#a"
       gradientTransform="matrix(12.391251,0,0,12.391251,471.58983,270.13514)" /><linearGradient
       id="f"
       y1="34.669998"
       x2="24"
       y2="-18.52"
       xlink:href="#a"
       gradientTransform="matrix(12.391251,0,0,12.391251,471.58983,270.13514)" /><linearGradient
       id="b"
       x1="24"
       y1="36.84"
       x2="24"
       y2="12.24"
       gradientUnits="userSpaceOnUse"><stop
         offset="0"
         stop-color="#fff"
         id="stop196" /><stop
         offset=".52"
         stop-color="#cce2e6"
         id="stop198" /><stop
         offset="1"
         stop-color="#8fa1bb"
         id="stop200" /></linearGradient><linearGradient
       id="c"
       x1="19.299999"
       y1="49.77"
       x2="19.299999"
       y2="17.059999"
       gradientUnits="userSpaceOnUse"><stop
         offset="0"
         stop-color="#27e9de"
         id="stop203" /><stop
         offset=".52"
         stop-color="#03a4ec"
         id="stop205" /><stop
         offset="1"
         stop-color="#2547a8"
         id="stop207" /></linearGradient><linearGradient
       id="g"
       x1="24.26"
       y1="44.529999"
       x2="24.26"
       y2="12.16"
       xlink:href="#b"
       gradientTransform="matrix(8,0,0,8,715.93691,552.47943)" /><linearGradient
       id="h"
       x1="28.700001"
       y1="49.77"
       x2="28.700001"
       y2="17.059999"
       xlink:href="#c"
       gradientTransform="matrix(8,0,0,8,715.93691,552.47943)" /><linearGradient
       id="d"
       x1="24"
       y1="49.990002"
       x2="24"
       y2="-4.8600001"
       gradientUnits="userSpaceOnUse"><stop
         offset="0"
         stop-color="#273a9b"
         id="stop212" /><stop
         offset=".56"
         stop-color="#202f65"
         id="stop214" /><stop
         offset="1"
         stop-color="#021e2f"
         id="stop216" /></linearGradient><linearGradient
       id="i"
       x1="25.309999"
       y1="29.379999"
       x2="43.93"
       y2="37"
       xlink:href="#d"
       gradientTransform="matrix(8,0,0,8,715.93691,552.47943)" /><linearGradient
       inkscape:collect="always"
       xlink:href="#a"
       id="linearGradient280"
       gradientUnits="userSpaceOnUse"
       x1="24"
       y1="-18"
       x2="24"
       y2="16.32"
       gradientTransform="matrix(12.391251,0,0,12.391251,471.58983,270.13514)" /></defs><g
     inkscape:label="Layer 1"
     inkscape:groupmode="layer"
     id="layer1"
     transform="translate(-519.26805,-307.3054)"><path
       d="m 602.93709,307.30889 h 326.01382 a 25.897715,25.897715 0 0 1 25.89772,25.89773 V 521.05797 H 583.11109 V 327.13489 a 19.826002,19.826002 0 0 1 19.826,-19.826 z"
       style="fill:url(#linearGradient280);stroke-width:1"
       id="path222" /><path
       d="M 583.11109,327.13489 V 521.05797 H 954.84863 V 344.48264 H 645.68691 a 5.4521505,5.4521505 0 0 1 -5.32825,-4.46085 l -2.47824,-14.12602 a 22.552077,22.552077 0 0 0 -22.18034,-18.58688 h -12.39125 a 19.826002,19.826002 0 0 0 -20.19774,19.826 z"
       style="fill:url(#e);stroke-width:1"
       id="path224" /><path
       d="m 640.35866,395.78242 -2.47824,-14.12602 a 22.552077,22.552077 0 0 0 -22.18034,-18.58688 h -53.40629 a 42.997642,42.997642 0 0 0 -42.37809,50.43239 l 43.61722,246.95766 a 22.552077,22.552077 0 0 0 22.18034,18.58687 h 371.73753 a 22.552077,22.552077 0 0 0 22.18033,-18.58687 L 1018.7875,438.40833 A 32.588991,32.588991 0 0 0 986.69413,400.24328 H 645.68691 a 5.4521505,5.4521505 0 0 1 -5.32825,-4.46086 z"
       style="fill:url(#f);stroke-width:1"
       id="path226" /></g></svg>
