<?xml version="1.0" encoding="UTF-8" standalone="no"?>
<!-- Created with Inkscape (http://www.inkscape.org/) -->

<svg
   width="392.85651"
   height="500"
   viewBox="0 0 392.85651 500"
   version="1.1"
   id="svg5"
   xml:space="preserve"
   inkscape:version="1.2.2 (b0a8486541, 2022-12-01)"
   sodipodi:docname="no-supported-file.svg"
   xmlns:inkscape="http://www.inkscape.org/namespaces/inkscape"
   xmlns:sodipodi="http://sodipodi.sourceforge.net/DTD/sodipodi-0.dtd"
   xmlns:xlink="http://www.w3.org/1999/xlink"
   xmlns="http://www.w3.org/2000/svg"
   xmlns:svg="http://www.w3.org/2000/svg"><sodipodi:namedview
     id="namedview7"
     pagecolor="#000000"
     bordercolor="#eeeeee"
     borderopacity="1"
     inkscape:showpageshadow="0"
     inkscape:pageopacity="0"
     inkscape:pagecheckerboard="true"
     inkscape:deskcolor="#1e1e2e"
     inkscape:document-units="px"
     showgrid="false"
     inkscape:zoom="0.59975148"
     inkscape:cx="-75.864756"
     inkscape:cy="280.11602"
     inkscape:window-width="1916"
     inkscape:window-height="1024"
     inkscape:window-x="0"
     inkscape:window-y="0"
     inkscape:window-maximized="1"
     inkscape:current-layer="layer1" /><defs
     id="defs2"><linearGradient
       inkscape:collect="always"
       id="linearGradient2569"><stop
         style="stop-color:#1572c8;stop-opacity:1"
         offset="0"
         id="stop2565" /><stop
         style="stop-color:#04a5ec;stop-opacity:1"
         offset="1"
         id="stop2567" /></linearGradient><inkscape:path-effect
       effect="fillet_chamfer"
       id="path-effect600"
       is_visible="true"
       lpeversion="1"
       nodesatellites_param="F,0,1,1,0,17.860667,0,1 @ F,0,0,1,0,0,0,1 @ F,0,0,1,0,0,0,1 @ F,0,0,1,0,0,0,1 @ F,0,0,1,0,0,0,1 @ F,0,0,1,0,0,0,1 @ F,0,0,1,0,0,0,1 @ F,0,0,1,0,0,0,1 @ F,0,0,1,0,0,0,1 @ F,0,0,1,0,0,0,1 @ F,0,0,1,0,0,0,1 @ F,0,0,1,0,0,0,1 @ F,0,0,1,0,0,0,1 @ F,0,1,1,0,17.860667,0,1 @ F,0,1,1,0,17.860667,0,1 @ F,0,0,1,0,0,0,1 @ F,0,0,1,0,0,0,1 @ F,0,0,1,0,0,0,1 @ F,0,0,1,0,0,0,1 @ F,0,0,1,0,0,0,1 @ F,0,0,1,0,0,0,1 @ F,0,0,1,0,0,0,1 @ F,0,0,1,0,0,0,1 @ F,0,0,1,0,0,0,1 @ F,0,0,1,0,0,0,1 @ F,0,0,1,0,0,0,1 @ F,0,0,1,0,0,0,1 @ F,0,0,1,0,17.860667,0,1 | F,0,0,1,0,0,0,1 @ F,0,0,1,0,0,0,1 @ F,0,0,1,0,0,0,1 @ F,0,0,1,0,0,0,1 @ F,0,0,1,0,0,0,1 @ F,0,0,1,0,0,0,1 @ F,0,0,1,0,0,0,1 @ F,0,0,1,0,0,0,1 @ F,0,0,1,0,0,0,1"
       unit="px"
       method="auto"
       mode="F"
       radius="0"
       chamfer_steps="1"
       flexible="false"
       use_knot_distance="true"
       apply_no_radius="true"
       apply_with_radius="true"
       only_selected="false"
       hide_knots="false" /><inkscape:perspective
       sodipodi:type="inkscape:persp3d"
       inkscape:vp_x="0 : -61.25984 : 1"
       inkscape:vp_y="0 : 3779.5274 : 0"
       inkscape:vp_z="793.7008 : -61.25984 : 1"
       inkscape:persp3d-origin="396.85039 : -248.34647 : 1"
       id="perspective3582" /><linearGradient
       id="a"
       x1="24"
       y1="84.330002"
       x2="24"
       y2="-8.2799997"
       gradientUnits="userSpaceOnUse"><stop
         offset="0"
         stop-color="#27e9de"
         id="stop187" /><stop
         offset=".52"
         stop-color="#03a4ec"
         id="stop189" /><stop
         offset="1"
         stop-color="#2547a8"
         id="stop191" /></linearGradient><linearGradient
       id="d"
       y1="74.330002"
       x2="24"
       y2="10.58"
       xlink:href="#a"
       gradientTransform="matrix(11.904761,0,0,11.904761,617.31627,307.68755)" /><linearGradient
       id="e"
       x1="24.76"
       y1="18.74"
       x2="44.52"
       y2="-1.02"
       xlink:href="#a"
       gradientTransform="matrix(11.904761,0,0,11.904761,298.41448,216.0955)" /><linearGradient
       id="b"
       x1="24"
       y1="16.110001"
       x2="24"
       y2="33.580002"
       gradientUnits="userSpaceOnUse"><stop
         offset="0"
         stop-color="#273a9b"
         id="stop196" /><stop
         offset=".56"
         stop-color="#202f65"
         id="stop198" /><stop
         offset="1"
         stop-color="#021e2f"
         id="stop200" /></linearGradient><linearGradient
       id="f"
       x1="24"
       y1="36.459999"
       x2="24"
       y2="12.17"
       xlink:href="#b"
       gradientTransform="matrix(11.904761,0,0,11.904761,617.31627,307.68755)" /><linearGradient
       id="g"
       x1="24"
       y1="33.779999"
       x2="24"
       y2="24.139999"
       xlink:href="#b"
       gradientTransform="matrix(11.904761,0,0,11.904761,617.31627,307.68755)" /><linearGradient
       id="c"
       x1="20.309999"
       y1="31.57"
       x2="20.309999"
       y2="22.360001"
       gradientUnits="userSpaceOnUse"><stop
         offset="0"
         stop-color="#f3c57a"
         id="stop205" /><stop
         offset=".49"
         stop-color="#f39369"
         id="stop207" /><stop
         offset="1"
         stop-color="#e94867"
         id="stop209" /></linearGradient><linearGradient
       id="h"
       x1="27.690001"
       y1="31.57"
       x2="27.690001"
       y2="22.360001"
       xlink:href="#c"
       gradientTransform="matrix(11.904761,0,0,11.904761,617.31627,307.68755)" /><linearGradient
       id="i"
       x1="20.309999"
       y1="28.4"
       x2="20.309999"
       y2="19.73"
       xlink:href="#c"
       gradientTransform="matrix(11.904761,0,0,11.904761,617.31627,307.68755)" /><linearGradient
       id="j"
       x1="27.690001"
       y1="28.4"
       x2="27.690001"
       y2="19.73"
       xlink:href="#c"
       gradientTransform="matrix(11.904761,0,0,11.904761,617.31627,307.68755)" /><linearGradient
       id="k"
       x1="24"
       y1="30.15"
       x2="24"
       y2="23.9"
       xlink:href="#c"
       gradientTransform="matrix(11.904761,0,0,11.904761,617.31627,307.68755)" /><linearGradient
       id="l"
       x1="24"
       y1="33.279999"
       x2="24"
       y2="23.719999"
       xlink:href="#c"
       gradientTransform="matrix(11.904761,0,0,11.904761,617.31627,307.68755)" /><linearGradient
       inkscape:collect="always"
       xlink:href="#a"
       id="linearGradient284"
       gradientUnits="userSpaceOnUse"
       x1="24"
       y1="84.330002"
       x2="24"
       y2="-8.2799997"
       gradientTransform="matrix(11.904761,0,0,11.904761,298.41448,216.0955)" /><linearGradient
       id="d-3"
       y1="74.330002"
       x2="24"
       y2="10.58"
       xlink:href="#a"
       gradientTransform="matrix(8.1818182,0,0,8.1818182,834.1813,256.78103)" /><linearGradient
       id="e-6"
       x1="24.76"
       y1="18.74"
       x2="44.52"
       y2="-1.02"
       xlink:href="#a"
       gradientTransform="matrix(8.1818182,0,0,8.1818182,834.1813,256.78103)" /><linearGradient
       id="f-7"
       x1="24"
       y1="36.459999"
       x2="24"
       y2="12.17"
       xlink:href="#b"
       gradientTransform="matrix(8.1818182,0,0,8.1818182,834.1813,256.78103)" /><linearGradient
       id="g-5"
       x1="24"
       y1="33.779999"
       x2="24"
       y2="24.139999"
       xlink:href="#b"
       gradientTransform="matrix(8.1818182,0,0,8.1818182,834.1813,256.78103)" /><linearGradient
       id="h-3"
       x1="27.690001"
       y1="31.57"
       x2="27.690001"
       y2="22.360001"
       xlink:href="#c"
       gradientTransform="matrix(8.1818182,0,0,8.1818182,834.1813,256.78103)" /><linearGradient
       id="i-5"
       x1="20.309999"
       y1="28.4"
       x2="20.309999"
       y2="19.73"
       xlink:href="#c"
       gradientTransform="matrix(8.1818182,0,0,8.1818182,834.1813,256.78103)" /><linearGradient
       id="j-6"
       x1="27.690001"
       y1="28.4"
       x2="27.690001"
       y2="19.73"
       xlink:href="#c"
       gradientTransform="matrix(8.1818182,0,0,8.1818182,834.1813,256.78103)" /><linearGradient
       id="k-2"
       x1="24"
       y1="30.15"
       x2="24"
       y2="23.9"
       xlink:href="#c"
       gradientTransform="matrix(8.1818182,0,0,8.1818182,834.1813,256.78103)" /><linearGradient
       id="l-9"
       x1="24"
       y1="33.279999"
       x2="24"
       y2="23.719999"
       xlink:href="#c"
       gradientTransform="matrix(8.1818182,0,0,8.1818182,834.1813,256.78103)" /><linearGradient
       inkscape:collect="always"
       xlink:href="#linearGradient2569"
       id="linearGradient2571"
       x1="617.19287"
       y1="559.06842"
       x2="617.19287"
       y2="739.0495"
       gradientUnits="userSpaceOnUse"
       gradientTransform="matrix(1.3200619,0,0,1.1542794,-184.75343,-105.77353)" /></defs><g
     inkscape:label="Layer 1"
     inkscape:groupmode="layer"
     id="layer1"
     transform="translate(-387.70019,-251.80972)"><g
       id="g4166"
       transform="matrix(0.99999835,0,0,0.99999835,6.4006409e-4,4.1571907e-4)"
       style="stroke-width:1"><path
         d="m 433.89066,251.80978 a 46.190473,46.190473 0 0 0 -46.19047,46.19048 v 407.61901 a 46.190473,46.190473 0 0 0 46.19047,46.19048 H 734.36683 A 46.190473,46.190473 0 0 0 780.5573,705.61927 V 390.14311 a 32.619045,32.619045 0 0 0 -9.52381,-23.09524 L 665.31921,261.33359 a 32.619045,32.619045 0 0 0 -23.09523,-9.52381 z"
         style="fill:url(#linearGradient284);stroke-width:1"
         id="path219" /><path
         d="m 655.55731,330.38121 a 46.190473,46.190473 0 0 0 46.19047,46.19047 h 75.59523 a 32.499998,32.499998 0 0 0 -6.54761,-9.52381 L 665.31921,261.33359 a 32.499998,32.499998 0 0 0 -9.52381,-6.54762 z"
         style="fill:url(#e);stroke-width:1"
         id="path223" /><path
         id="rect710"
         style="fill:url(#linearGradient2571);fill-opacity:1;stroke-width:6.00001;paint-order:markers stroke fill;stop-color:#000000"
         d="m 571.35156,408.84961 c -22.60645,0.56856 -47.38096,10.35253 -74.61523,30.58398 v 312.37696 h 161.30664 l -1.75391,-291.89649 c -23.26969,-32.07913 -49.83691,-50.15691 -80.44531,-51.05468 -1.48791,-0.0437 -2.98509,-0.0477 -4.49219,-0.01 z" /><path
         style="font-weight:bold;font-size:260px;line-height:1.25;font-family:Inter;-inkscape-font-specification:'Inter Bold';fill:#e6faf8;stroke-width:6.00001;paint-order:markers stroke fill"
         d="m 570.04736,655.58844 c -7.25382,0 -13.45584,-2.53883 -18.60606,-7.61652 -5.07767,-5.15022 -7.58024,-11.31596 -7.5077,-18.49725 -0.0725,-7.10875 2.43006,-13.20196 7.5077,-18.27965 5.15022,-5.07767 11.35224,-7.61652 18.60606,-7.61652 6.89115,0 12.9481,2.53885 18.17085,7.61652 5.22275,5.07769 7.8704,11.1709 7.94294,18.27965 -0.0725,4.78753 -1.34194,9.1761 -3.80826,13.16569 -2.39376,3.91708 -5.54917,7.07249 -9.46625,9.46626 -3.91707,2.32121 -8.19683,3.48182 -12.83928,3.48182 z"
         id="path656" /><path
         style="font-weight:bold;font-size:260px;line-height:1.25;font-family:Inter;-inkscape-font-specification:'Inter Bold';fill:#e6faf8;stroke-width:6.00001;paint-order:markers stroke fill"
         d="m 545.91508,560.25663 v -1.68773 c 0.0812,-14.21942 1.34066,-20.27408 3.7783,-28.72449 2.51887,-8.45038 6.17529,-15.27571 10.96927,-20.47595 4.79397,-5.20024 10.56299,-9.91297 17.30705,-14.13817 5.03774,-3.25015 9.54732,-6.62218 13.52876,-10.11609 3.98144,-3.49392 7.15034,-7.35347 9.50671,-11.57868 2.35635,-4.30645 3.53453,-9.10041 3.53453,-14.38191 0,-5.60652 -1.34068,-10.52237 -4.02206,-14.74758 -2.68138,-4.22518 -6.29717,-7.47533 -10.84738,-9.75045 -4.46897,-2.27511 -9.42546,-3.41266 -14.86946,-3.41266 -5.2815,0 -10.27861,1.17818 -14.99132,3.53454 -4.71271,2.27512 -8.57227,5.68777 -11.57867,10.23798 -5.36236,7.97114 -15.43109,16.69766 -28.45242,16.69766 h -2.57295 c -13.02132,0 -23.86085,-10.82901 -20.04995,-23.23801 1.93567,-6.3029 4.66011,-11.96377 8.17331,-16.98262 7.3941,-10.64426 17.18518,-18.5665 29.37325,-23.76674 12.18808,-5.2815 25.63559,-7.92225 40.34251,-7.92225 16.16951,0 30.47019,2.68138 42.90202,8.04413 12.43182,5.2815 22.18229,12.95999 29.25137,23.03545 7.06907,10.07546 10.60362,22.22291 10.60362,36.44233 0,9.5067 -1.58445,17.95709 -4.75335,25.35119 -3.08763,7.31284 -7.43472,13.81316 -13.04123,19.50092 -5.60652,5.60652 -12.2287,10.68487 -19.86655,15.23509 -6.41905,3.81892 -11.70055,7.80036 -15.84451,11.94431 -4.06268,4.14394 -7.10969,8.93792 -9.14104,14.38192 -1.95009,5.444 -2.96577,6.8672 -3.04702,14.83008 v 1.68773 a 23.577186,23.577186 0 0 1 -23.57719,23.57719 23.1014,23.1014 0 0 1 -22.6156,-23.57719 z"
         id="path549" /></g></g></svg>
